<?xml version="1.0" standalone="no"?>
<!DOCTYPE svg PUBLIC "-//W3C//DTD SVG 20010904//EN"
 "http://www.w3.org/TR/2001/REC-SVG-20010904/DTD/svg10.dtd">
<svg version="1.0" xmlns="http://www.w3.org/2000/svg"
 width="4032.000000pt" height="3024.000000pt" viewBox="0 0 4032.000000 3024.000000"
 preserveAspectRatio="xMidYMid meet">

<g transform="translate(0.000000,3024.000000) scale(0.100000,-0.100000)"
fill="#000000" stroke="none">
<path d="M0 15120 l0 -15120 20160 0 20160 0 0 15120 0 15120 -20160 0 -20160
0 0 -15120z m20165 14910 c3 -5 -1 -10 -9 -10 -9 0 -16 5 -16 10 0 6 4 10 9
10 6 0 13 -4 16 -10z m-275 -315 c0 -9 -9 -15 -25 -15 -24 0 -32 10 -18 23 12
13 43 7 43 -8z m8060 -277 c0 -26 -24 -18 -28 10 -3 16 1 20 12 16 9 -3 16
-15 16 -26z m3651 -1587 c-16 -28 -27 -26 -35 6 -8 31 12 49 32 29 11 -11 11
-18 3 -35z m-22401 -356 c-10 -12 -15 -13 -21 -3 -11 17 11 42 24 29 7 -7 6
-15 -3 -26z m15005 -1245 c3 -5 -1 -10 -9 -10 -9 0 -16 5 -16 10 0 6 4 10 9
10 6 0 13 -4 16 -10z m-8087 -818 c2 -7 -5 -12 -17 -12 -14 0 -19 5 -14 15 6
17 25 15 31 -3z m8412 -517 c0 -8 -6 -15 -14 -15 -7 0 -19 7 -26 15 -11 13 -8
15 14 15 16 0 26 -5 26 -15z m2241 -135 c22 -12 26 -50 6 -50 -19 0 -50 37
-42 49 8 14 11 14 36 1z m2554 -228 c0 -18 -20 -15 -23 4 -3 10 1 15 10 12 7
-3 13 -10 13 -16z m1609 -163 c11 -17 12 -24 3 -34 -13 -14 -19 -8 -31 33 -9
28 8 29 28 1z m-7779 -739 c3 -5 1 -10 -4 -10 -6 0 -11 5 -11 10 0 6 2 10 4
10 3 0 8 -4 11 -10z m8174 -309 c8 -15 7 -20 -8 -24 -14 -3 -20 2 -24 19 -5
29 18 33 32 5z m-12339 -496 c0 -8 -7 -15 -15 -15 -16 0 -20 12 -8 23 11 12
23 8 23 -8z m3275 -835 c11 -17 -5 -32 -21 -19 -7 6 -11 15 -8 20 7 12 21 11
29 -1z m8025 -810 c0 -5 -5 -10 -11 -10 -5 0 -7 5 -4 10 3 6 8 10 11 10 2 0 4
-4 4 -10z m-3415 -260 c3 -5 -1 -10 -9 -10 -9 0 -16 5 -16 10 0 6 4 10 9 10 6
0 13 -4 16 -10z m-5510 -720 c-5 -8 -11 -8 -17 -2 -6 6 -7 16 -3 22 5 8 11 8
17 2 6 -6 7 -16 3 -22z m-2290 -490 c3 -5 1 -10 -4 -10 -6 0 -11 5 -11 10 0 6
2 10 4 10 3 0 8 -4 11 -10z m18732 -732 c-2 -25 -8 -34 -25 -36 -12 -2 -22 -8
-22 -13 0 -5 -7 -9 -15 -9 -22 0 -18 17 5 30 12 6 25 22 30 36 14 35 30 30 27
-8z m-21257 -268 c0 -5 -4 -10 -10 -10 -5 0 -10 5 -10 10 0 6 5 10 10 10 6 0
10 -4 10 -10z m8441 -33 c-13 -13 -26 -3 -16 12 3 6 11 8 17 5 6 -4 6 -10 -1
-17z m-23028 -46 c17 -7 26 -19 30 -43 2 -18 3 -36 0 -40 -8 -14 -32 4 -42 33
-5 16 -21 34 -35 41 -15 6 -26 15 -26 21 0 9 29 5 73 -12z m2048 -6 c-1 -15
-24 -12 -29 3 -3 9 2 13 12 10 10 -1 17 -7 17 -13z m28502 -269 c3 -8 -1 -17
-9 -20 -28 -11 -35 -7 -24 14 13 23 26 26 33 6z m-17131 -48 c-16 -16 -35 3
-26 26 6 16 8 16 22 2 13 -12 14 -18 4 -28z m-6017 -148 c0 -39 -3 -45 -22
-48 -17 -3 -26 5 -38 34 -21 50 -13 66 27 62 32 -3 33 -5 33 -48z m-4885 -746
c0 -8 -7 -14 -15 -14 -8 0 -15 9 -15 20 0 13 5 18 15 14 8 -4 15 -12 15 -20z
m-2950 -85 c0 -15 -4 -19 -16 -15 -9 3 -18 6 -20 6 -2 0 -4 7 -4 15 0 8 9 15
20 15 14 0 20 -7 20 -21z m22745 -24 c0 -24 -5 -31 -24 -33 -29 -5 -51 20 -44
49 4 16 13 19 37 17 27 -3 31 -7 31 -33z m-8770 -265 c3 -5 1 -10 -4 -10 -6 0
-11 5 -11 10 0 6 2 10 4 10 3 0 8 -4 11 -10z m-6515 -136 c0 -8 -4 -12 -10 -9
-5 3 -10 13 -10 21 0 8 5 12 10 9 6 -3 10 -13 10 -21z m4390 -134 c0 -5 -4
-10 -10 -10 -5 0 -10 5 -10 10 0 6 5 10 10 10 6 0 10 -4 10 -10z m-12350 -90
c0 -5 -4 -10 -10 -10 -5 0 -10 5 -10 10 0 6 5 10 10 10 6 0 10 -4 10 -10z m78
-45 c-2 -42 -12 -41 -39 3 l-21 32 31 0 c28 0 30 -2 29 -35z m7386 -101 c17
-7 22 -34 6 -34 -5 0 -14 9 -20 20 -12 22 -10 23 14 14z m12216 -244 c0 -5 -5
-10 -11 -10 -5 0 -7 5 -4 10 3 6 8 10 11 10 2 0 4 -4 4 -10z m5470 -786 c0 -8
-4 -12 -10 -9 -5 3 -10 10 -10 16 0 5 5 9 10 9 6 0 10 -7 10 -16z m430 -68 c0
-18 -17 -29 -30 -21 -8 5 -7 11 1 21 15 18 29 18 29 0z m-210 -141 c0 -9 -6
-12 -15 -9 -8 4 -15 10 -15 15 0 5 7 9 15 9 8 0 15 -7 15 -15z m-16312 -169
c8 -42 -29 -40 -43 2 -6 21 -4 23 16 20 14 -2 25 -11 27 -22z m-3631 -238 c-3
-8 -6 -5 -6 6 -1 11 2 17 5 13 3 -3 4 -12 1 -19z m17023 -218 c0 -5 -2 -10 -4
-10 -3 0 -8 5 -11 10 -3 6 -1 10 4 10 6 0 11 -4 11 -10z m-10840 -846 c0 -8
-4 -12 -10 -9 -5 3 -10 10 -10 16 0 5 5 9 10 9 6 0 10 -7 10 -16z m7830 -238
c0 -19 -26 -27 -39 -12 -13 15 -4 26 21 26 10 0 18 -6 18 -14z m4890 -142 c11
-12 10 -18 -3 -31 -22 -23 -52 0 -36 28 12 23 22 24 39 3z m-5110 -239 c0 -9
-6 -12 -15 -9 -8 4 -15 10 -15 15 0 5 7 9 15 9 8 0 15 -7 15 -15z m817 -11 c3
-8 1 -20 -6 -27 -14 -14 -47 15 -37 32 10 16 36 13 43 -5z m2578 -254 c-5 -8
-11 -8 -17 -2 -6 6 -7 16 -3 22 5 8 11 8 17 2 6 -6 7 -16 3 -22z m-1920 -70
c0 -8 -10 -16 -22 -18 -22 -3 -32 16 -16 32 12 11 38 2 38 -14z m-8150 -40 c3
-5 -1 -10 -9 -10 -9 0 -16 5 -16 10 0 6 4 10 9 10 6 0 13 -4 16 -10z m2762
-46 c7 -18 -14 -35 -34 -27 -7 3 -13 14 -13 24 0 24 38 26 47 3z m2983 -434
c0 -5 -2 -10 -4 -10 -3 0 -8 5 -11 10 -3 6 -1 10 4 10 6 0 11 -4 11 -10z
m-256 -140 c30 -11 31 -17 10 -45 -15 -20 -15 -20 -30 -1 -13 18 -20 56 -10
56 3 0 16 -4 30 -10z m-246 -112 c-6 -18 -28 -21 -28 -4 0 9 7 16 16 16 9 0
14 -5 12 -12z m-15716 -397 c-4 -10 -7 -11 -10 -3 -2 7 -8 10 -13 6 -5 -3 -16
1 -24 10 -13 13 -12 15 12 18 31 3 44 -8 35 -31z m10636 -173 c-6 -18 -28 -21
-28 -4 0 9 7 16 16 16 9 0 14 -5 12 -12z m17072 -98 c0 -5 -5 -10 -11 -10 -5
0 -7 5 -4 10 3 6 8 10 11 10 2 0 4 -4 4 -10z m-6525 -200 c3 -5 -1 -10 -10
-10 -9 0 -13 5 -10 10 3 6 8 10 10 10 2 0 7 -4 10 -10z m12511 -105 c7 -18
-13 -80 -31 -95 -19 -16 -76 -5 -106 18 -35 29 -18 56 44 74 68 20 86 21 93 3z
m-36093 -181 c11 -11 -3 -24 -18 -18 -8 4 -12 10 -9 15 6 11 18 12 27 3z
m29097 -198 c0 -3 -4 -8 -10 -11 -5 -3 -10 -1 -10 4 0 6 5 11 10 11 6 0 10 -2
10 -4z m-19550 -116 c0 -18 -3 -19 -20 -10 -11 6 -20 15 -20 20 0 6 9 10 20
10 13 0 20 -7 20 -20z m18870 -155 c0 -8 -7 -15 -16 -15 -14 0 -14 3 -4 15 7
8 14 15 16 15 2 0 4 -7 4 -15z m-10650 -195 c0 -5 -4 -10 -10 -10 -5 0 -10 5
-10 10 0 6 5 10 10 10 6 0 10 -4 10 -10z m810 -596 c0 -9 -5 -14 -12 -12 -18
6 -21 28 -4 28 9 0 16 -7 16 -16z m9450 -44 c0 -5 -4 -10 -10 -10 -5 0 -10 5
-10 10 0 6 5 10 10 10 6 0 10 -4 10 -10z m5200 -121 c0 -6 -9 -24 -20 -40 -19
-26 -23 -27 -48 -16 -26 11 -42 25 -42 37 0 8 59 27 88 29 12 0 22 -4 22 -10z
m-24200 -99 c12 -22 -3 -27 -30 -10 -13 9 -13 11 0 20 19 13 18 13 30 -10z
m26314 -245 c-6 -16 -24 -21 -24 -7 0 11 11 22 21 22 5 0 6 -7 3 -15z m-8264
-64 c0 -6 -5 -13 -10 -16 -15 -9 -43 3 -35 15 8 13 45 13 45 1z m-14916 -7
c16 -6 23 -44 8 -44 -18 0 -45 28 -38 38 8 14 9 14 30 6z m11696 -4 c0 -5 -7
-10 -16 -10 -8 0 -12 5 -9 10 3 6 10 10 16 10 5 0 9 -4 9 -10z m-5781 -94 c3
-18 -22 -46 -41 -46 -12 0 -30 41 -24 56 9 23 60 14 65 -10z m8205 -21 c-6
-16 -34 -21 -34 -7 0 13 11 22 26 22 8 0 11 -6 8 -15z m-6316 -152 c5 -18 -28
-29 -38 -12 -5 7 -6 17 -3 22 7 12 35 5 41 -10z m10822 3 c0 -8 -4 -17 -9 -21
-12 -7 -24 12 -16 25 9 15 25 12 25 -4z m-6312 -141 c-4 -11 -28 -16 -28 -6 0
12 13 22 23 18 5 -1 7 -7 5 -12z m-9208 -175 c0 -5 -4 -10 -9 -10 -6 0 -13 5
-16 10 -3 6 1 10 9 10 9 0 16 -4 16 -10z m2780 -330 c0 -5 -4 -10 -10 -10 -5
0 -10 5 -10 10 0 6 5 10 10 10 6 0 10 -4 10 -10z m16770 -204 c0 -3 -4 -8 -10
-11 -5 -3 -10 -1 -10 4 0 6 5 11 10 11 6 0 10 -2 10 -4z m-5140 -36 c0 -5 -4
-10 -10 -10 -5 0 -10 5 -10 10 0 6 5 10 10 10 6 0 10 -4 10 -10z m-18886 -122
c5 -9 8 -20 4 -23 -9 -10 -58 17 -58 32 0 20 40 13 54 -9z m4906 -58 c0 -5 -4
-10 -10 -10 -5 0 -10 5 -10 10 0 6 5 10 10 10 6 0 10 -4 10 -10z m3550 -224
c0 -3 -4 -8 -10 -11 -5 -3 -10 -1 -10 4 0 6 5 11 10 11 6 0 10 -2 10 -4z
m14698 -466 c-14 -22 -24 -25 -33 -11 -3 6 3 14 12 20 28 16 34 13 21 -9z
m-19945 -105 c-4 -15 -36 -12 -41 3 -3 9 3 13 19 10 13 -1 23 -7 22 -13z
m-13800 -496 c5 -18 2 -20 -21 -14 -41 10 -50 24 -28 41 22 16 41 6 49 -27z
m21887 -194 c0 -8 -4 -15 -10 -15 -5 0 -10 7 -10 15 0 8 5 15 10 15 6 0 10 -7
10 -15z m-20140 -661 c0 -10 -7 -14 -22 -12 -32 5 -35 28 -4 28 17 0 26 -5 26
-16z m8990 -1084 c11 -7 12 -12 3 -21 -15 -15 -43 -5 -43 16 0 17 18 19 40 5z
m-9580 -390 c0 -5 -7 -10 -15 -10 -8 0 -15 5 -15 10 0 6 7 10 15 10 8 0 15 -4
15 -10z m15320 -1371 c0 -6 -4 -7 -10 -4 -5 3 -10 11 -10 16 0 6 5 7 10 4 6
-3 10 -11 10 -16z m-3100 -980 c0 -5 -4 -9 -10 -9 -5 0 -10 7 -10 16 0 8 5 12
10 9 6 -3 10 -10 10 -16z m8540 -1118 c0 -14 -18 -23 -30 -16 -6 4 -8 11 -5
16 8 12 35 12 35 0z"/>
</g>
</svg>
